<svg xmlns="http://www.w3.org/2000/svg" width="600" height="800" viewBox="0 0 600 800">
  <defs>
    <linearGradient id="g" x1="0" y1="0" x2="1" y2="1">
      <stop offset="0%" stop-color="#3c1d18"/>
      <stop offset="100%" stop-color="#8b4520"/>
    </linearGradient>
  </defs>
  <rect width="600" height="800" rx="24" fill="url(#g)"/>
  <rect x="42" y="42" width="516" height="716" rx="18" fill="none" stroke="#ffffff" stroke-opacity=".18" stroke-width="2"/>

  <!-- 复古 K 线 -->
  <g transform="translate(110,160)">
    <line x1="0" y1="150" x2="360" y2="150" stroke="#ffd37c" stroke-opacity=".35" stroke-width="1.5"/>
    <line x1="40" y1="60" x2="40" y2="220" stroke="#e8f5d0" stroke-width="2"/>
    <rect x="28" y="100" width="24" height="70" fill="#6ab24f" stroke="#d7e5b3" stroke-width="1.5"/>
    <line x1="100" y1="40" x2="100" y2="200" stroke="#ffe0d0" stroke-width="2"/>
    <rect x="88" y="70" width="24" height="90" fill="#c94b2e" stroke="#ffcfb8" stroke-width="1.5"/>
    <line x1="160" y1="80" x2="160" y2="240" stroke="#e8f5d0" stroke-width="2"/>
    <rect x="148" y="115" width="24" height="80" fill="#6ab24f" stroke="#d7e5b3" stroke-width="1.5"/>
    <line x1="220" y1="20" x2="220" y2="180" stroke="#e8f5d0" stroke-width="2"/>
    <rect x="208" y="40" width="24" height="110" fill="#6ab24f" stroke="#d7e5b3" stroke-width="1.5"/>
    <line x1="280" y1="10" x2="280" y2="260" stroke="#ffe0d0" stroke-width="2"/>
    <rect x="268" y="50" width="24" height="160" fill="#c94b2e" stroke="#ffcfb8" stroke-width="1.5"/>
  </g>

  <text x="64" y="118" fill="#ffffff" fill-opacity=".78" font-size="22" font-family="Segoe UI, PingFang SC, Microsoft YaHei, sans-serif" letter-spacing="2">CAMPUSQUANT BOOKLIST</text>
  <text x="64" y="490" fill="#ffffff" font-size="52" font-weight="700" font-family="Segoe UI, PingFang SC, Microsoft YaHei, sans-serif">股票大作手</text>
  <text x="64" y="555" fill="#ffffff" font-size="56" font-weight="700" font-family="Segoe UI, PingFang SC, Microsoft YaHei, sans-serif">回忆录</text>
  <line x1="64" y1="600" x2="240" y2="600" stroke="#ffd37c" stroke-width="5" stroke-linecap="round"/>
  <text x="64" y="645" fill="#ffffff" fill-opacity=".92" font-size="26" font-family="Segoe UI, PingFang SC, Microsoft YaHei, sans-serif">埃德温·勒菲弗</text>
  <text x="64" y="705" fill="#ffd37c" fill-opacity=".9" font-size="16" letter-spacing="2" font-family="Segoe UI, PingFang SC, Microsoft YaHei, sans-serif">交易心理 · 趋势 · 纪律</text>
  <text x="64" y="732" fill="#ffffff" fill-opacity=".55" font-size="16" font-family="Segoe UI, PingFang SC, Microsoft YaHei, sans-serif">投资学习中心精选书单</text>
</svg>
